<svg width="17" height="17" viewBox="0 0 17 17" fill="none" xmlns="http://www.w3.org/2000/svg">
<path d="M2.83341 14.875C2.44383 14.875 2.11044 14.7364 1.83325 14.4592C1.55605 14.182 1.41722 13.8484 1.41675 13.4584V5.66669C1.41675 5.2771 1.55558 4.94371 1.83325 4.66652C2.11091 4.38933 2.4443 4.25049 2.83341 4.25002H5.66675V2.83335C5.66675 2.44377 5.80558 2.11038 6.08325 1.83319C6.36091 1.55599 6.6943 1.41716 7.08341 1.41669H9.91675C10.3063 1.41669 10.64 1.55552 10.9176 1.83319C11.1953 2.11085 11.3339 2.44424 11.3334 2.83335V4.25002H14.1667C14.5563 4.25002 14.89 4.38885 15.1676 4.66652C15.4453 4.94419 15.5839 5.27758 15.5834 5.66669V13.4584C15.5834 13.8479 15.4448 14.1816 15.1676 14.4592C14.8904 14.7369 14.5568 14.8755 14.1667 14.875H2.83341ZM2.83341 13.4584H14.1667V5.66669H2.83341V13.4584ZM7.08341 4.25002H9.91675V2.83335H7.08341V4.25002Z" fill="black"/>
</svg>
