<svg width="12" height="16" viewBox="0 0 12 16" fill="none" xmlns="http://www.w3.org/2000/svg">
<path d="M5.54167 3.5625C6.06657 3.5625 6.56998 3.77102 6.94115 4.14218C7.31231 4.51335 7.52083 5.01676 7.52083 5.54167C7.52083 5.80157 7.46964 6.05894 7.37018 6.29906C7.27072 6.53918 7.12493 6.75737 6.94115 6.94115C6.75737 7.12493 6.53918 7.27072 6.29906 7.37018C6.05894 7.46964 5.80157 7.52083 5.54167 7.52083C5.01676 7.52083 4.51335 7.31231 4.14218 6.94115C3.77102 6.56998 3.5625 6.06657 3.5625 5.54167C3.5625 5.01676 3.77102 4.51335 4.14218 4.14218C4.51335 3.77102 5.01676 3.5625 5.54167 3.5625ZM5.54167 0C7.01141 0 8.42095 0.583852 9.46022 1.62312C10.4995 2.66238 11.0833 4.07193 11.0833 5.54167C11.0833 9.69792 5.54167 15.8333 5.54167 15.8333C5.54167 15.8333 0 9.69792 0 5.54167C0 4.07193 0.583852 2.66238 1.62312 1.62312C2.66238 0.583852 4.07193 0 5.54167 0ZM5.54167 1.58333C4.49185 1.58333 3.48503 2.00037 2.7427 2.7427C2.00037 3.48503 1.58333 4.49185 1.58333 5.54167C1.58333 6.33333 1.58333 7.91667 5.54167 13.2287C9.5 7.91667 9.5 6.33333 9.5 5.54167C9.5 4.49185 9.08296 3.48503 8.34063 2.7427C7.5983 2.00037 6.59148 1.58333 5.54167 1.58333Z" fill="black"/>
</svg>
